<svg width="79" height="48" viewBox="0 0 79 48" fill="none" xmlns="http://www.w3.org/2000/svg">
<path fill-rule="evenodd" clip-rule="evenodd" d="M73.5294 5.20931H75.9262C76.0939 5.20939 76.2593 5.16979 76.4091 5.09369C76.5589 5.01759 76.6889 4.90711 76.7888 4.77111C76.8887 4.63511 76.9556 4.47737 76.9842 4.31055C77.0128 4.14372 77.0023 3.97245 76.9535 3.81048C76.5841 2.58449 75.6044 1 73.0063 1C69.963 1 39.0302 1.05796 21.8879 1.09008C17.9041 1.09754 14.6651 1.10361 12.694 1.10723C12.4809 1.1086 12.2731 1.17397 12.097 1.29503C11.9208 1.41609 11.7843 1.58735 11.7049 1.78699C11.6255 1.98664 11.6068 2.20562 11.6511 2.41606C11.6954 2.62649 11.8008 2.81885 11.9537 2.96861C13.0903 4.05374 15.0591 5.20929 18.2944 5.20931L13.3407 18.2373H10.7569V23.0388H12.9947L13.4786 26.938C7.61641 25.22 2.48957 28.2225 1.64045 30.3658C1.20452 31.4605 1.5707 31.931 2.04626 32.1263C2.28642 32.2192 2.54634 32.2475 2.80059 32.2085C3.05485 32.1695 3.29472 32.0645 3.49672 31.9038C5.60346 30.2793 8.61535 30.8811 8.61535 30.8811C9.86142 30.8811 10.8707 31.2668 11.6812 31.8344L10.5461 33.6244C9.00846 32.9122 7.26179 32.8102 5.65311 33.3386C4.04444 33.8669 2.69149 34.9869 1.86309 36.4761C1.0347 37.9652 0.791484 39.7146 1.18178 41.3764C1.57207 43.0383 2.56731 44.4912 3.96974 45.4463C5.37217 46.4014 7.07915 46.7888 8.75152 46.5317C10.4239 46.2745 11.9392 45.3915 12.9965 44.0582C14.0537 42.7249 14.5754 41.0388 14.458 39.3349C14.3406 37.6311 13.5926 36.0342 12.3627 34.8615L13.2642 33.4408C14.2154 34.78 14.5979 36.1831 14.649 36.382L14.6533 36.4172C14.7234 37.2072 15.0837 37.942 15.6634 38.4773C16.2431 39.0125 17.0002 39.3093 17.7857 39.3093H57.5569V39.431C57.5569 40.372 57.7405 41.3037 58.0971 42.1731C58.4538 43.0424 58.9766 43.8323 59.6356 44.4977C60.2946 45.1631 61.077 45.6909 61.938 46.051C62.799 46.4111 63.7219 46.5964 64.6539 46.5964C65.5859 46.5964 66.5087 46.4111 67.3698 46.051C68.2308 45.6909 69.0132 45.1631 69.6722 44.4977C70.3312 43.8323 70.854 43.0424 71.2106 42.1731C71.5673 41.3037 71.7509 40.372 71.7509 39.431V39.3093H74.9593L76.9995 26.4237H73.5294V5.20931ZM69.5664 26.4237V5.20931H44.8103V26.4237H69.5664ZM40.8473 26.4237V5.20931H23.6477L19.3186 20.1065L22.8552 22.5073L22.9979 32.997H36.2771V26.4237H40.8473ZM10.32 42.3893C11.0017 41.7011 11.3846 40.7676 11.3846 39.7943V39.7319C11.3684 38.7691 10.9781 37.8514 10.2978 37.1765C9.61756 36.5017 8.70186 36.1238 7.74817 36.1243C6.79491 36.1242 5.87978 36.5023 5.20011 37.1772C4.52044 37.852 4.13068 38.7695 4.11488 39.7319V39.7943C4.11488 40.7676 4.49784 41.7011 5.17951 42.3893C5.86118 43.0776 6.78573 43.4642 7.74976 43.4642C8.71379 43.4642 9.63833 43.0776 10.32 42.3893ZM62.0773 41.9748C62.759 42.6631 63.6835 43.0497 64.6476 43.0497H64.6523C65.615 43.0476 66.5375 42.66 67.2174 41.972C67.8974 41.284 68.2793 40.3517 68.2793 39.3798V39.3173C68.2793 38.3444 67.8965 37.4114 67.2151 36.7234C66.5337 36.0355 65.6096 35.649 64.646 35.649C63.6824 35.649 62.7582 36.0355 62.0768 36.7234C61.3955 37.4114 61.0127 38.3444 61.0127 39.3173V39.3798C61.0127 40.3531 61.3956 41.2866 62.0773 41.9748Z" fill="#F02C2C"/>
<path d="M75.9262 5.20931L75.9267 4.20931H75.9262V5.20931ZM73.5294 5.20931V4.20931H72.5294V5.20931H73.5294ZM76.4091 5.09369L76.862 5.98524L76.862 5.98523L76.4091 5.09369ZM76.9535 3.81048L77.9109 3.52202V3.52202L76.9535 3.81048ZM21.8879 1.09008L21.8898 2.09008L21.8879 1.09008ZM12.694 1.10723L12.6922 0.107225L12.6876 0.107254L12.694 1.10723ZM11.7049 1.78699L12.6342 2.15655V2.15655L11.7049 1.78699ZM11.6511 2.41606L10.6726 2.62209L10.6726 2.62209L11.6511 2.41606ZM11.9537 2.96861L11.2541 3.68322L11.2632 3.6919L11.9537 2.96861ZM18.2944 5.20931L19.2292 5.56472L19.7445 4.20933L18.2945 4.20931L18.2944 5.20931ZM13.3407 18.2373V19.2373H14.0303L14.2754 18.5927L13.3407 18.2373ZM10.7569 18.2373V17.2373H9.75691V18.2373H10.7569ZM10.7569 23.0388H9.75691V24.0388H10.7569V23.0388ZM12.9947 23.0388L13.9871 22.9157L13.8783 22.0388H12.9947V23.0388ZM13.4786 26.938L13.1974 27.8977L14.6586 28.3259L14.471 26.8149L13.4786 26.938ZM1.64045 30.3658L2.5695 30.7357L2.57014 30.7341L1.64045 30.3658ZM2.04626 32.1263L1.66644 33.0514L1.67598 33.0553L1.68559 33.059L2.04626 32.1263ZM2.80059 32.2085L2.9522 33.1969L2.9522 33.1969L2.80059 32.2085ZM3.49672 31.9038L2.88608 31.1119L2.88011 31.1165L2.8742 31.1212L3.49672 31.9038ZM8.61535 30.8811L8.41942 31.8617L8.51643 31.8811H8.61535V30.8811ZM11.6812 31.8344L12.5257 32.37L13.0374 31.5633L12.2548 31.0153L11.6812 31.8344ZM10.5461 33.6244L10.1258 34.5318L10.9211 34.9001L11.3905 34.1599L10.5461 33.6244ZM5.65311 33.3386L5.34109 32.3885L5.34108 32.3885L5.65311 33.3386ZM1.86309 36.4761L0.989206 35.9899H0.989206L1.86309 36.4761ZM3.96974 45.4463L4.53263 44.6197H4.53263L3.96974 45.4463ZM8.75152 46.5317L8.59953 45.5433H8.59953L8.75152 46.5317ZM14.458 39.3349L13.4604 39.4037L14.458 39.3349ZM12.3627 34.8615L11.5183 34.3258L11.0786 35.0189L11.6726 35.5853L12.3627 34.8615ZM13.2642 33.4408L14.0794 32.8617L13.2173 31.6481L12.4198 32.9051L13.2642 33.4408ZM14.649 36.382L15.6414 36.259L15.6335 36.1954L15.6176 36.1334L14.649 36.382ZM14.6533 36.4172L15.6494 36.3289L15.6479 36.3115L15.6457 36.2942L14.6533 36.4172ZM17.7857 39.3093L17.7857 40.3093H17.7857V39.3093ZM57.5569 39.3093H58.5569V38.3093H57.5569V39.3093ZM58.0971 42.1731L57.172 42.5526L58.0971 42.1731ZM59.6356 44.4977L60.3461 43.794L59.6356 44.4977ZM61.938 46.051L62.3238 45.1284H62.3238L61.938 46.051ZM67.3698 46.051L66.984 45.1284L67.3698 46.051ZM69.6722 44.4977L68.9617 43.794L69.6722 44.4977ZM71.2106 42.1731L70.2855 41.7935V41.7935L71.2106 42.1731ZM71.7509 39.3093V38.3093H70.7509V39.3093H71.7509ZM74.9593 39.3093V40.3093H75.8134L75.947 39.4657L74.9593 39.3093ZM76.9995 26.4237L77.9872 26.5801L78.1702 25.4237H76.9995V26.4237ZM73.5294 26.4237H72.5294V27.4237H73.5294V26.4237ZM69.5664 26.4237V27.4237H70.5664V26.4237H69.5664ZM69.5664 5.20931H70.5664V4.20931H69.5664V5.20931ZM44.8103 5.20931V4.20931H43.8103V5.20931H44.8103ZM44.8103 26.4237H43.8103V27.4237H44.8103V26.4237ZM40.8473 26.4237V27.4237H41.8473V26.4237H40.8473ZM40.8473 5.20931H41.8473V4.20931H40.8473V5.20931ZM23.6477 5.20931V4.20931H22.8969L22.6874 4.93026L23.6477 5.20931ZM19.3186 20.1065L18.3583 19.8275L18.1554 20.5256L18.7569 20.9339L19.3186 20.1065ZM22.8552 22.5073L23.8551 22.4937L23.848 21.9726L23.4168 21.6799L22.8552 22.5073ZM22.9979 32.997L21.9979 33.0106L22.0114 33.997H22.9979V32.997ZM36.2771 32.997V33.997H37.2771V32.997H36.2771ZM36.2771 26.4237V25.4237H35.2771V26.4237H36.2771ZM10.32 42.3893L9.60951 41.6856L10.32 42.3893ZM11.3846 39.7319H12.3846V39.7234L12.3845 39.715L11.3846 39.7319ZM10.2978 37.1765L11.0021 36.4666L11.0021 36.4666L10.2978 37.1765ZM7.74817 36.1243L7.74803 37.1243H7.74876L7.74817 36.1243ZM4.11488 39.7319L3.11501 39.7154L3.11488 39.7237V39.7319H4.11488ZM5.17951 42.3893L4.46902 43.093H4.46902L5.17951 42.3893ZM62.0773 41.9748L62.7878 41.2711L62.7878 41.2711L62.0773 41.9748ZM64.6523 43.0497V44.0497L64.6545 44.0497L64.6523 43.0497ZM67.2174 41.972L66.5062 41.269V41.2691L67.2174 41.972ZM67.2151 36.7234L67.9256 36.0197V36.0197L67.2151 36.7234ZM62.0768 36.7234L61.3663 36.0197L61.3663 36.0197L62.0768 36.7234ZM75.9262 4.20931H73.5294V6.20931H75.9262V4.20931ZM75.9562 4.20214C75.9466 4.20703 75.9365 4.20932 75.9267 4.20931L75.9258 6.20931C76.2514 6.20946 76.5721 6.13255 76.862 5.98524L75.9562 4.20214ZM75.9828 4.17923C75.9751 4.18964 75.9658 4.19724 75.9562 4.20215L76.862 5.98523C77.152 5.83794 77.4027 5.62458 77.5948 5.36299L75.9828 4.17923ZM75.9986 4.1416C75.9961 4.15593 75.9905 4.16877 75.9828 4.17923L77.5948 5.36299C77.7869 5.10144 77.9151 4.79881 77.9698 4.47949L75.9986 4.1416ZM75.996 4.09893C76.0001 4.11259 76.001 4.12727 75.9986 4.1416L77.9698 4.47949C78.0245 4.16017 78.0044 3.83232 77.9109 3.52202L75.996 4.09893ZM73.0063 2C74.0842 2 74.7347 2.3213 75.15 2.69173C75.5845 3.07934 75.8446 3.59646 75.996 4.09894L77.9109 3.52202C77.693 2.79851 77.2785 1.91039 76.4814 1.19926C75.6649 0.470952 74.5266 0 73.0063 0V2ZM21.8898 2.09008C39.0332 2.05796 69.9642 2 73.0063 2V0C69.9617 0 39.0273 0.0579625 21.886 0.0900802L21.8898 2.09008ZM12.6959 2.10723C14.667 2.10361 17.906 2.09754 21.8898 2.09008L21.886 0.0900802C17.9022 0.0975447 14.6633 0.103613 12.6922 0.107235L12.6959 2.10723ZM12.6633 2.11917C12.6752 2.11105 12.6881 2.10729 12.7004 2.10721L12.6876 0.107254C12.2738 0.109905 11.871 0.236902 11.5306 0.470899L12.6633 2.11917ZM12.6342 2.15655C12.6407 2.14 12.6514 2.12736 12.6633 2.11917L11.5306 0.470899C11.1902 0.704817 10.928 1.0347 10.7757 1.41744L12.6342 2.15655ZM12.6297 2.21003C12.6258 2.19194 12.6275 2.17318 12.6342 2.15655L10.7757 1.41744C10.6235 1.80009 10.5878 2.21931 10.6726 2.62209L12.6297 2.21003ZM12.6533 2.25407C12.6422 2.24319 12.6334 2.22805 12.6297 2.21002L10.6726 2.62209C10.7574 3.02493 10.9593 3.3945 11.2541 3.68316L12.6533 2.25407ZM18.2945 4.20931C15.3261 4.20929 13.602 3.15972 12.6443 2.24533L11.2632 3.6919C12.5786 4.94776 14.7921 6.20929 18.2944 6.20931L18.2945 4.20931ZM17.3597 4.8539L12.406 17.8819L14.2754 18.5927L19.2292 5.56472L17.3597 4.8539ZM13.3407 17.2373H10.7569V19.2373H13.3407V17.2373ZM9.75691 18.2373V23.0388H11.7569V18.2373H9.75691ZM10.7569 24.0388H12.9947V22.0388H10.7569V24.0388ZM12.0023 23.162L12.4863 27.0612L14.471 26.8149L13.9871 22.9157L12.0023 23.162ZM13.7599 25.9784C10.5975 25.0516 7.62648 25.3965 5.3252 26.2688C4.17575 26.7045 3.17838 27.2772 2.39745 27.905C1.63181 28.5205 1.01046 29.2409 0.710751 29.9974L2.57014 30.7341C2.695 30.4189 3.03292 29.9603 3.65058 29.4637C4.25293 28.9795 5.06288 28.5071 6.03405 28.139C7.97402 27.4037 10.4975 27.1064 13.1974 27.8977L13.7599 25.9784ZM0.711397 29.9958C0.44743 30.6587 0.350623 31.3153 0.556518 31.9103C0.773418 32.5372 1.24887 32.8799 1.66644 33.0514L2.42608 31.2012C2.394 31.1881 2.39283 31.1819 2.40561 31.194C2.42285 31.2101 2.43906 31.2346 2.44657 31.2563C2.45947 31.2936 2.39753 31.1676 2.5695 30.7357L0.711397 29.9958ZM1.68559 33.059C2.08853 33.2148 2.52506 33.2624 2.9522 33.1969L2.64899 31.2201C2.56762 31.2325 2.48431 31.2235 2.40693 31.1936L1.68559 33.059ZM2.9522 33.1969C3.37931 33.1314 3.78138 32.9552 4.11924 32.6864L2.8742 31.1212C2.80805 31.1738 2.73039 31.2076 2.64899 31.2201L2.9522 33.1969ZM4.10736 32.6957C4.93512 32.0575 5.98388 31.8293 6.89777 31.7819C7.34567 31.7588 7.73681 31.7804 8.01386 31.8077C8.15175 31.8212 8.25959 31.836 8.33 31.8468C8.36515 31.8522 8.39082 31.8566 8.40607 31.8593C8.41369 31.8607 8.41869 31.8616 8.42096 31.862C8.42209 31.8623 8.42254 31.8623 8.42229 31.8623C8.42216 31.8623 8.42186 31.8622 8.42139 31.8621C8.42115 31.8621 8.42086 31.862 8.42054 31.862C8.42037 31.8619 8.42009 31.8619 8.42001 31.8619C8.41972 31.8618 8.41942 31.8617 8.61535 30.8811C8.81128 29.9005 8.81096 29.9004 8.81062 29.9004C8.81049 29.9003 8.81014 29.9003 8.80989 29.9002C8.80938 29.9001 8.80882 29.9 8.80822 29.8999C8.80701 29.8997 8.80561 29.8994 8.80403 29.8991C8.80087 29.8985 8.79696 29.8977 8.79233 29.8968C8.78307 29.8951 8.77091 29.8928 8.75595 29.8902C8.72605 29.8849 8.68496 29.8779 8.63364 29.87C8.5311 29.8543 8.38719 29.8347 8.20979 29.8173C7.85628 29.7825 7.36277 29.7552 6.79436 29.7846C5.67562 29.8425 4.16506 30.1257 2.88608 31.1119L4.10736 32.6957ZM8.61535 31.8811C9.6397 31.8811 10.4511 32.1939 11.1076 32.6536L12.2548 31.0153C11.2902 30.3398 10.0831 29.8811 8.61535 29.8811V31.8811ZM10.8367 31.2989L9.70157 33.0888L11.3905 34.1599L12.5257 32.37L10.8367 31.2989ZM10.9663 32.7169C9.19902 31.8985 7.19065 31.781 5.34109 32.3885L5.96514 34.2886C7.33293 33.8394 8.81789 33.926 10.1258 34.5318L10.9663 32.7169ZM5.34108 32.3885C3.49174 32.9959 1.93901 34.2825 0.989206 35.9899L2.73698 36.9622C3.44397 35.6913 4.59713 34.7379 5.96515 34.2886L5.34108 32.3885ZM0.989206 35.9899C0.0395533 37.6971 -0.238832 39.7013 0.208266 41.6051L2.15529 41.1478C1.8218 39.7278 2.02984 38.2334 2.73698 36.9622L0.989206 35.9899ZM0.208266 41.6051C0.655399 43.509 1.79615 45.1759 3.40685 46.2728L4.53263 44.6197C3.33847 43.8065 2.48875 42.5677 2.15529 41.1478L0.208266 41.6051ZM3.40685 46.2728C5.01785 47.3699 6.98017 47.8158 8.9035 47.52L8.59953 45.5433C7.17814 45.7618 5.7265 45.4328 4.53263 44.6197L3.40685 46.2728ZM8.9035 47.52C10.8267 47.2243 12.5671 46.2092 13.78 44.6795L12.2129 43.4369C11.3114 44.5738 10.021 45.3247 8.59953 45.5433L8.9035 47.52ZM13.78 44.6795C14.9927 43.1501 15.5901 41.2177 15.4557 39.2662L13.4604 39.4037C13.5607 40.8599 13.1146 42.2997 12.2129 43.4369L13.78 44.6795ZM15.4557 39.2662C15.3212 37.3147 14.4644 35.4837 13.0528 34.1378L11.6726 35.5853C12.7209 36.5847 13.36 37.9475 13.4604 39.4037L15.4557 39.2662ZM13.2071 35.3973L14.1085 33.9766L12.4198 32.9051L11.5183 34.3258L13.2071 35.3973ZM12.4489 34.0199C13.2964 35.213 13.6414 36.479 13.6804 36.6307L15.6176 36.1334C15.5544 35.8871 15.1344 34.347 14.0794 32.8617L12.4489 34.0199ZM13.6566 36.5051L13.6609 36.5403L15.6457 36.2942L15.6414 36.259L13.6566 36.5051ZM13.6572 36.5056C13.7491 37.5416 14.2218 38.5073 14.985 39.212L16.3418 37.7425C15.9456 37.3768 15.6977 36.8728 15.6494 36.3289L13.6572 36.5056ZM14.985 39.212C15.7485 39.9169 16.7475 40.3093 17.7857 40.3093L17.7857 38.3093C17.2529 38.3093 16.7377 38.108 16.3418 37.7425L14.985 39.212ZM17.7857 40.3093H57.5569V38.3093H17.7857V40.3093ZM56.5569 39.3093V39.431H58.5569V39.3093H56.5569ZM56.5569 39.431C56.5569 40.5019 56.7658 41.5627 57.172 42.5526L59.0223 41.7935C58.7151 41.0448 58.5569 40.242 58.5569 39.431H56.5569ZM57.172 42.5526C57.5781 43.5426 58.1737 44.4428 58.9251 45.2014L60.3461 43.794C59.7794 43.2219 59.3295 42.5422 59.0223 41.7935L57.172 42.5526ZM58.9251 45.2014C59.6765 45.9601 60.5691 46.5624 61.5522 46.9735L62.3238 45.1284C61.5848 44.8193 60.9127 44.3661 60.3461 43.794L58.9251 45.2014ZM61.5522 46.9735C62.5352 47.3847 63.5892 47.5964 64.6539 47.5964V45.5964C63.8546 45.5964 63.0628 45.4375 62.3238 45.1284L61.5522 46.9735ZM64.6539 47.5964C65.7185 47.5964 66.7725 47.3847 67.7556 46.9735L66.984 45.1284C66.2449 45.4375 65.4532 45.5964 64.6539 45.5964V47.5964ZM67.7556 46.9735C68.7387 46.5624 69.6313 45.9601 70.3827 45.2014L68.9617 43.794C68.3951 44.3661 67.723 44.8193 66.984 45.1284L67.7556 46.9735ZM70.3827 45.2014C71.1341 44.4427 71.7297 43.5426 72.1358 42.5526L70.2855 41.7935C69.9783 42.5422 69.5283 43.2219 68.9617 43.794L70.3827 45.2014ZM72.1358 42.5526C72.5419 41.5627 72.7509 40.5019 72.7509 39.431H70.7509C70.7509 40.242 70.5926 41.0448 70.2855 41.7935L72.1358 42.5526ZM72.7509 39.431V39.3093H70.7509V39.431H72.7509ZM71.7509 40.3093H74.9593V38.3093H71.7509V40.3093ZM75.947 39.4657L77.9872 26.5801L76.0118 26.2673L73.9716 39.153L75.947 39.4657ZM76.9995 25.4237H73.5294V27.4237H76.9995V25.4237ZM72.5294 5.20931V26.4237H74.5294V5.20931H72.5294ZM70.5664 26.4237V5.20931H68.5664V26.4237H70.5664ZM69.5664 4.20931H44.8103V6.20931H69.5664V4.20931ZM43.8103 5.20931V26.4237H45.8103V5.20931H43.8103ZM69.5664 25.4237H44.8103V27.4237H69.5664V25.4237ZM41.8473 26.4237V5.20931H39.8473V26.4237H41.8473ZM40.8473 4.20931H23.6477V6.20931H40.8473V4.20931ZM20.2789 20.3856L24.608 5.48837L22.6874 4.93026L18.3583 19.8275L20.2789 20.3856ZM23.4168 21.6799L19.8802 19.2791L18.7569 20.9339L22.2935 23.3347L23.4168 21.6799ZM23.9978 32.9834L23.8551 22.4937L21.8553 22.5209L21.9979 33.0106L23.9978 32.9834ZM36.2771 31.997H22.9979V33.997H36.2771V31.997ZM35.2771 26.4237V32.997H37.2771V26.4237H35.2771ZM40.8473 25.4237H36.2771V27.4237H40.8473V25.4237ZM10.3846 39.7943C10.3846 40.5055 10.1047 41.1856 9.60951 41.6856L11.0305 43.093C11.8986 42.2165 12.3846 41.0298 12.3846 39.7943H10.3846ZM10.3846 39.7319V39.7943H12.3846V39.7319H10.3846ZM9.59355 37.8864C10.0877 38.3766 10.3729 39.0453 10.3848 39.7487L12.3845 39.715C12.3639 38.493 11.8685 37.3261 11.0021 36.4666L9.59355 37.8864ZM7.74876 37.1243C8.437 37.1239 9.09973 37.3966 9.59355 37.8864L11.0021 36.4666C10.1354 35.6068 8.96671 35.1236 7.74758 35.1243L7.74876 37.1243ZM5.9047 37.8868C6.39801 37.397 7.06021 37.1242 7.74803 37.1243L7.74831 35.1243C6.52961 35.1242 5.36155 35.6077 4.49552 36.4676L5.9047 37.8868ZM5.11475 39.7483C5.12629 39.0453 5.41108 38.3769 5.9047 37.8868L4.49552 36.4676C3.62981 37.3271 3.13508 38.4938 3.11501 39.7154L5.11475 39.7483ZM5.11488 39.7943V39.7319H3.11488V39.7943H5.11488ZM5.89 41.6856C5.39479 41.1856 5.11488 40.5055 5.11488 39.7943H3.11488C3.11488 41.0298 3.60089 42.2165 4.46902 43.093L5.89 41.6856ZM7.74976 42.4642C7.05406 42.4642 6.38489 42.1853 5.89 41.6856L4.46902 43.093C5.33747 43.9699 6.5174 44.4642 7.74976 44.4642V42.4642ZM9.60951 41.6856C9.11462 42.1853 8.44545 42.4642 7.74976 42.4642V44.4642C8.98212 44.4642 10.162 43.9699 11.0305 43.093L9.60951 41.6856ZM64.6476 42.0497C63.9519 42.0497 63.2827 41.7708 62.7878 41.2711L61.3668 42.6785C62.2353 43.5553 63.4152 44.0497 64.6476 44.0497V42.0497ZM64.6523 42.0497H64.6476V44.0497H64.6523V42.0497ZM66.5062 41.2691C66.0125 41.7686 65.3448 42.0482 64.6501 42.0497L64.6545 44.0497C65.8851 44.047 67.0624 43.5514 67.9287 42.6749L66.5062 41.2691ZM67.2793 39.3798C67.2793 40.0899 67.0001 40.7692 66.5062 41.269L67.9287 42.6749C68.7946 41.7987 69.2793 40.6135 69.2793 39.3798H67.2793ZM67.2793 39.3173V39.3798H69.2793V39.3173H67.2793ZM66.5046 37.4271C66.9995 37.9268 67.2793 38.6066 67.2793 39.3173H69.2793C69.2793 38.0823 68.7934 36.8959 67.9256 36.0197L66.5046 37.4271ZM64.646 36.649C65.3412 36.649 66.01 36.9278 66.5046 37.4271L67.9256 36.0197C67.0574 35.1432 65.8779 34.649 64.646 34.649V36.649ZM62.7873 37.4271C63.2819 36.9278 63.9507 36.649 64.646 36.649V34.649C63.414 34.649 62.2345 35.1432 61.3663 36.0197L62.7873 37.4271ZM62.0127 39.3173C62.0127 38.6066 62.2924 37.9268 62.7873 37.4271L61.3663 36.0197C60.4985 36.8959 60.0127 38.0823 60.0127 39.3173H62.0127ZM62.0127 39.3798V39.3173H60.0127V39.3798H62.0127ZM62.7878 41.2711C62.2926 40.7711 62.0127 40.091 62.0127 39.3798H60.0127C60.0127 40.6152 60.4987 41.802 61.3668 42.6785L62.7878 41.2711Z" fill="#B70000"/>
</svg>
